# xmcd
#
# Track frame offsets: 
#        150
#        26885
#        51967
#        72365
#        93047
#        111882
#        145882
#        200682
#
# Disc length: 3733 seconds
#
# Revision: 2
# Processed by: cddbd v1.5.2PL0 Copyright (c) Steve Scherf et al.
# Submitted via: ExactAudioCopy v1.3
#
DISCID=730e9308
DTITLE=Taake - Nattestid...
DYEAR=2007
DGENRE=Black Metal
TTITLE0=Nattestid Ser Porten Vid 1
TTITLE1=Nattestid Ser Porten Vid 2
TTITLE2=Nattestid Ser Porten Vid 3
TTITLE3=Nattestid Ser Porten Vid 4
TTITLE4=Nattestid Ser Porten Vid 5
TTITLE5=Nattestid Ser Porten Vid 6
TTITLE6=Nattestid Ser Porten Vid 7
TTITLE7=Data track
EXTD=
EXTT0=
EXTT1=
EXTT2=
EXTT3=
EXTT4=
EXTT5=
EXTT6=
EXTT7=
PLAYORDER=
